<svg viewBox="0 0 370 353" fill="none"><path opacity=".231" d="M113.35 351.618 9.49 291.215c-3.767-2.193-3.172-6.081 1.189-8.672l143.204-85.322c4.361-2.592 10.902-2.99 14.668-.798l103.96 60.304c3.765 2.193 3.171 6.08-1.19 8.672L128.017 350.82c-4.36 2.592-10.901 2.891-14.667.798z" fill="#3A0E0E"/><path d="m268.3 250.9-104.9-60.5c-3.8-2.2-10.4-1.8-14.8.8L4.2 276.8c-.5.3-.9.6-1.3.9l-2.3-2.8v7.4c.2 1.2 1 2.3 2.5 3.2L107.9 346c3.8 2.2 10.4 1.8 14.8-.8l144.5-85.6c2.3-1.4 3.5-3.1 3.7-4.7v-7.1c-.1.1-2 3.5-2.6 3.1z" fill="url(#a)"/><path d="M107.9 339.1 3 278.5c-3.8-2.2-3.2-6.1 1.2-8.7l144.5-85.6c4.4-2.6 11-3 14.8-.8L268.3 244c3.8 2.2 3.2 6.1-1.2 8.7l-144.5 85.6c-4.3 2.6-11 2.9-14.7.8z" fill="url(#b)"/><path opacity=".65" d="M114.6 330.9 13.8 272.7 158.6 189l100.8 58.2-144.8 83.7z" fill="url(#c)"/><path d="M114.3 329.8 13.5 271.6 158.4 188l100.8 58.2-144.9 83.6z" fill="url(#d)"/><path opacity=".35" d="m236.6 222.9-3.8-2.2c4.5-2.6 4.5-6.8 0-9.3l-20.5-11.8c-4.5-2.6-11.7-2.6-16.2 0l-2.5-1.5c-4.6-2.7-12.2-2.7-16.8 0-4.6 2.7-4.6 7 0 9.7l43 24.8c4.6 2.7 12.2 2.7 16.8 0 4.6-2.7 4.6-7 0-9.7z" fill="url(#e)"/><path d="m236.6 219.3-3.8-2.2c4.5-2.6 4.5-6.8 0-9.3L212.3 196c-4.5-2.6-11.7-2.6-16.2 0l-2.5-1.5c-4.6-2.7-12.2-2.7-16.8 0-4.6 2.7-4.6 7 0 9.7l43 24.8c4.6 2.7 12.2 2.7 16.8 0 4.6-2.7 4.6-7.1 0-9.7z" fill="#B10000"/><path d="m236.6 218.3-3.8-2.2c4.5-2.6 4.5-6.8 0-9.3L212.3 195c-4.5-2.6-11.7-2.6-16.2 0l-2.5-1.5c-4.6-2.7-12.2-2.7-16.8 0-4.6 2.7-4.6 7 0 9.7l43 24.8c4.6 2.7 12.2 2.7 16.8 0 4.6-2.7 4.6-7.1 0-9.7z" fill="url(#f)"/><path d="m214.3 258.3-15-8.7 14.9-8.6 15.1 8.7-15 8.6z" fill="url(#g)"/><path d="m190.5 272.1-15-8.7 14.9-8.6 15.1 8.7-15 8.6z" fill="url(#h)"/><path d="m167.2 285.7-15.1-8.7 15-8.7 15.1 8.7-15 8.7z" fill="url(#i)"/><path d="m142.5 300.2-15.1-8.7 15-8.6 15 8.7-14.9 8.6z" fill="url(#j)"/><path d="m118.6 316.2-15-8.7 14.9-8.7 15.1 8.7-15 8.7z" fill="url(#k)"/><path d="m149.8 206.9-7 4.1 52.4 30.3 7.1-4.1-52.5-30.3z" fill="url(#l)"/><path d="m119.1 224.9 53.1 30.6 7-4-53.1-30.7-7 4.1z" fill="url(#m)"/><path d="m95.2 238.8 52.5 30.3 7.1-4.1-52.5-30.3-7.1 4.1z" fill="url(#n)"/><path d="m71.3 252.7 53.1 30.6 7.1-4.1-53.2-30.6-7 4.1z" fill="url(#o)"/><path d="m47.5 266.6 52.5 30.3 7.1-4.1-52.6-30.3-7 4.1z" fill="url(#p)"/><g class="ok" stroke="#fff" stroke-width="3"><path d="M209.88 251.647v-.005l.8-4.9.007-.038.003-.029a.119.119 0 0 1 .032-.029.319.319 0 0 1 .204-.056c.005.005.016.014.028.032.037.052.06.125.057.195l-.394 2.555-.315 2.051 2.047-.344 11.9-2 .038-.006.026-.006a.103.103 0 0 1 .037.021.201.201 0 0 1 .058.071.042.042 0 0 1 .001.007l.009.08.015.067a.103.103 0 0 1-.021.037.178.178 0 0 1-.071.058l-.007.001-.042.005-.042.007-14.2 2.4-.091.015a.014.014 0 0 1-.004-.003c-.062-.063-.075-.099-.077-.104a.09.09 0 0 1-.003-.017.259.259 0 0 1 .005-.065zM185.88 265.847v-.005l.8-4.9.007-.038.003-.029a.119.119 0 0 1 .032-.029.319.319 0 0 1 .204-.056.143.143 0 0 1 .028.032c.037.052.06.125.057.195l-.394 2.555-.315 2.051 2.047-.344 11.84-1.99a.327.327 0 0 1 .189.057.119.119 0 0 1 .032.029l.008.071.015.067a.103.103 0 0 1-.021.037.178.178 0 0 1-.052.048l-.019.01-.007.001-.042.005-.042.007-14.2 2.4-.091.015-.004-.003c-.062-.063-.075-.099-.077-.104a.09.09 0 0 1-.003-.017.259.259 0 0 1 .005-.065zM161.88 279.947v-.005l.8-4.9.007-.038.003-.029a.119.119 0 0 1 .032-.029.319.319 0 0 1 .204-.056c.005.005.016.014.028.032.037.052.06.125.057.195l-.394 2.555-.315 2.051 2.047-.344 11.9-2 .038-.006.026-.006a.103.103 0 0 1 .037.021.178.178 0 0 1 .058.071.042.042 0 0 1 .001.007l.009.08.015.067a.103.103 0 0 1-.021.037.178.178 0 0 1-.071.058l-.007.001-.042.005-.042.007-14.2 2.4-.091.015a.014.014 0 0 1-.004-.003c-.062-.063-.075-.099-.077-.103a.13.13 0 0 1-.003-.018.259.259 0 0 1 .005-.065zM137.88 294.147v-.005l.8-4.9.007-.038.003-.029a.119.119 0 0 1 .032-.029.319.319 0 0 1 .204-.056c.005.005.016.014.028.032.037.052.06.125.057.195l-.394 2.555-.315 2.051 2.047-.344 11.9-2 .038-.006.026-.006a.103.103 0 0 1 .037.021.201.201 0 0 1 .058.071.042.042 0 0 1 .001.007l.009.08.015.067a.103.103 0 0 1-.021.037.178.178 0 0 1-.052.048l-.019.01-.007.001-.042.005-.042.007-14.2 2.4-.091.015a.014.014 0 0 1-.004-.003c-.062-.063-.075-.099-.077-.104a.09.09 0 0 1-.003-.017.259.259 0 0 1 .005-.065zM114.071 308.394l.005-.026.004-.026.8-4.9.007-.038.003-.029a.119.119 0 0 1 .032-.029.319.319 0 0 1 .204-.056.143.143 0 0 1 .028.032.318.318 0 0 1 .056.199l-.395 2.767-.267 1.873 1.884-.167 11.3-1 .017-.001.017-.002c.005-.001.027-.003.065.029.043.036.072.09.078.146.001.005.003.027-.029.065a.226.226 0 0 1-.137.077l-13.41 1.192h-.133a.172.172 0 0 1-.074-.012.219.219 0 0 1-.062-.045.56.56 0 0 1 .007-.049z"/></g><g class="pencil"><path opacity=".231" d="M161.5 341.1c0 2.5 1.8 5.6 4 6.9 1.3.7 2.4.7 3.1 0-.1.1-.2.2-.3.2l8.3-4.8 49.9-29c.3-.2.5-.4.7-.7l3.9-6.3 1.9-3.1-3.6.1-7.2.1H221.3c-.1 0-.2.1-.2.1-.1 0-.1.1-.2.1l-49.9 29h.1-.1l-8.3 4.8c-.7.4-1.2 1.3-1.2 2.6zm10.1-7.7s0 .1 0 0c-.1.1-.1.1 0 0-.1 0-.1.1 0 0z" fill="#0E103A"/><path d="m221.1 299.6 5.4 9.9c.3-.2.5-.4.7-.7l5.8-9.5-10.9.2h-.8c0 .1-.1.1-.2.1z" fill="url(#q)"/><path d="M171 328.8c.2-.1.4-.2.6-.2.2 0 .4-.1.6 0h.1c.2 0 .4.1.7.2 0 0 .1 0 .1.1.2.1.5.2.7.3.3.2.5.3.8.5.1.1.2.1.2.2l.5.5.1.1c.2.2.4.5.6.7 0 0 0 .1.1.1l.6.9c.2.3.3.6.5.9l.3.9v.1c.1.3.2.6.2.9v.2c.1.3.1.6.1.9 0 1.3-.5 2.2-1.2 2.6l49.9-29.1c.3-.2.5-.4.7-.7.2-.3.3-.6.4-1 .1-.3.1-.6.1-.9 0-.3 0-.5-.1-.8V305.9c0-.1 0-.2-.1-.3 0-.2-.1-.3-.1-.5v-.2c0-.1 0-.1-.1-.2 0-.1-.1-.3-.1-.4-.1-.1-.1-.2-.2-.4-.1-.1-.1-.2-.1-.3-.1-.1-.1-.2-.2-.3-.1-.1-.1-.2-.2-.3-.1-.1-.1-.2-.2-.3-.1-.1-.2-.2-.2-.4-.1-.1-.1-.1-.1-.2 0 0 0-.1-.1-.1 0-.1-.1-.1-.1-.1-.1-.1-.2-.3-.3-.4l-.2-.2c0-.1-.1-.1-.1-.1l-.2-.2c-.1-.1-.2-.2-.4-.3-.1-.1-.2-.1-.2-.2-.3-.2-.5-.4-.8-.5l-.6-.3c-.1 0-.1 0-.2-.1-.1 0-.1 0-.1-.1-.1 0-.1 0-.2-.1-.1 0-.2-.1-.4-.1H221c-.1 0-.2.1-.2.1-.1 0-.1.1-.2.1L171 328.8z" fill="url(#r)"/><path d="M173.8 329.1c-2.2-1.3-4-.3-4 2.3 0 2.5 1.8 5.6 4 6.9 2.2 1.3 4 .3 4-2.3 0-2.6-1.8-5.7-4-6.9z" fill="#261287"/><path d="M169.4 339.7c0-.3-.1-.6-.2-.9v-.1l-.3-.9c-.1-.3-.3-.6-.5-.9l-.6-.9s0-.1-.1-.1c-.2-.2-.4-.5-.6-.7l-.1-.1-.5-.5c-.1-.1-.2-.1-.2-.2-.2-.2-.5-.4-.7-.5-.3-.1-.5-.3-.7-.3h-.1c-.2-.1-.4-.1-.7-.1h-.7c-.2 0-.4.1-.6.2l8.3-4.8c.1 0 .1-.1.2-.1s.1-.1.2-.1h1c.1 0 .2 0 .4.1 0 0 .1 0 .2.1h.1c.1 0 .1 0 .2.1l.6.3c.3.1.5.3.7.5.1.1.2.1.2.2l.3.3.2.2.1.1c0 .1.1.1.1.2.1.1.2.3.3.4 0 .1.1.1.1.2l.1.1.1.1c.1.1.2.2.2.3.1.1.1.2.2.3.1.1.1.2.1.3.1.1.1.2.2.3.1.1.1.2.1.3.1.1.1.2.1.4 0 .1.1.3.1.4 0 .1 0 .1.1.2v.2c0 .2.1.3.1.5v.5c0 .3.1.5.1.8 0 .6-.1 1.2-.3 1.6-.2.4-.5.8-.9 1l-8.3 4.8c.7-.4 1.2-1.3 1.2-2.6 0-.3 0-.6-.1-.9.3-.2.3-.2.3-.3z" fill="#8C8C8C"/><path opacity=".8" d="M165.5 333.9c-2.2-1.3-4-.2-4 2.3s1.8 5.6 4 6.9c2.2 1.3 4 .2 4-2.3s-1.7-5.6-4-6.9z" fill="#8C8C8C"/><path d="m233.1 299.3-1.9 3.1c0-1.4-.6-2.4-1.7-3.1h3.6z" fill="url(#s)"/><path d="M162.8 340.3c.7 1.2 1.6 2.2 2.7 2.8 1.3.7 2.4.7 3.1.1-.1.1-.2.2-.3.2l8.3-4.8 49.9-29c.3-.2.5-.4.7-.7l5.6-9.1-70 40.5z" fill="url(#t)"/></g><path d="m347.5 142.1 4.1-2.1c-.3-.4-.7-.8-1.1-1.1l-4.3 2.2 1.3 1z" fill="#4CC1F0"/><path opacity=".077" d="M365.9 254c-4.6 2-27.9-7.9-52.1-22-24.2-14.1-40.2-27.2-35.6-29.1 4.6-2 27.9 7.9 52.1 22 24.2 14.1 40.2 27.2 35.6 29.1z" fill="#3A0E0E"/><path opacity=".154" d="M362.8 252.2c-4.2 1.8-25.9-7.3-48.4-20.5-22.5-13.1-37.3-25.2-33.1-27.1 4.2-1.8 25.9 7.3 48.4 20.5s37.4 25.3 33.1 27.1z" fill="#3A0E0E"/><path opacity=".231" d="M359.7 250.4c-3.9 1.7-23.9-6.8-44.8-18.9-20.8-12.1-34.5-23.3-30.6-25 3.9-1.7 23.9 6.8 44.8 18.9 20.8 12.1 34.5 23.3 30.6 25z" fill="#3A0E0E"/><path opacity=".308" d="M356.6 248.6c-3.6 1.5-22-6.2-41.1-17.3-19.1-11.1-31.7-21.4-28.1-22.9 3.6-1.5 22 6.2 41.1 17.3 19.1 11.1 31.7 21.4 28.1 22.9z" fill="#3A0E0E"/><path opacity=".385" d="M353.5 246.8c-3.3 1.4-20-5.7-37.4-15.8-17.4-10.1-28.8-19.5-25.5-20.9 3.3-1.4 20 5.7 37.4 15.8 17.3 10.1 28.8 19.5 25.5 20.9z" fill="#3A0E0E"/><path opacity=".462" d="M350.4 245c-2.9 1.3-18-5.1-33.7-14.2-15.7-9.1-26-17.6-23-18.8 2.9-1.3 18 5.1 33.7 14.2 15.6 9.1 25.9 17.5 23 18.8z" fill="#3A0E0E"/><path opacity=".538" d="M347.3 243.2c-2.6 1.1-16-4.5-30-12.7-13.9-8.1-23.1-15.6-20.5-16.8 2.6-1.1 16 4.5 30 12.7 13.9 8.1 23.1 15.6 20.5 16.8z" fill="#3A0E0E"/><path opacity=".615" d="M344.2 241.4c-2.3 1-14.1-4-26.3-11.1-12.2-7.1-20.3-13.7-18-14.7 2.3-1 14.1 4 26.3 11.1 12.2 7.1 20.3 13.7 18 14.7z" fill="#3A0E0E"/><path opacity=".692" d="M341.1 239.6c-2 .9-12.1-3.4-22.6-9.5-10.5-6.1-17.4-11.8-15.4-12.6 2-.9 12.1 3.4 22.6 9.5 10.4 6 17.4 11.7 15.4 12.6z" fill="#3A0E0E"/><path opacity=".769" d="M338 237.7c-1.7.7-10.1-2.9-18.9-8-8.8-5.1-14.6-9.9-12.9-10.6 1.7-.7 10.1 2.9 18.9 8 8.7 5.2 14.5 9.9 12.9 10.6z" fill="#3A0E0E"/><path opacity=".846" d="M334.9 235.9c-1.3.6-8.1-2.3-15.2-6.4-7.1-4.1-11.7-7.9-10.4-8.5 1.3-.6 8.1 2.3 15.2 6.4 7 4.1 11.7 8 10.4 8.5z" fill="#3A0E0E"/><path opacity=".923" d="M331.8 234.1c-1 .4-6.2-1.7-11.5-4.9-5.4-3.1-8.9-6-7.9-6.4 1-.4 6.2 1.7 11.5 4.9 5.3 3.1 8.9 6 7.9 6.4z" fill="#3A0E0E"/><path d="M328.7 232.3c-.7.3-4.2-1.2-7.8-3.3-3.6-2.1-6-4.1-5.4-4.4.7-.3 4.2 1.2 7.8 3.3 3.6 2.2 6 4.1 5.4 4.4z" fill="#3A0E0E"/><path d="M346.5 143.4v99.9l2.8 1.7s1.5-1 2.5-1.7c.5-.4.9-.9.9-1.6v-98.5c0-.9-.2-1.8-.7-2.6l-5.5 2.8z" fill="#06719B"/><path d="m349.3 245-55.6-34c-1-.6-1.7-1.7-1.7-2.9l-1.7-99.9s2.2-1.2 2.8-1.5c.5-.2 1.1-.3 1.6 0l55.2 31.8c1.7 1 2.7 2.7 2.7 4.7v98.5c0 .7-.4 1.2-.9 1.6-.9.8-2.4 1.7-2.4 1.7z" fill="#DA0000"/><path d="m347.3 245.1-56-32.3c-1-.6-1.7-1.7-1.7-2.9V109.6c0-1.2 1.3-1.9 2.3-1.3l55.6 32.1c1.7 1 2.7 2.7 2.7 4.7v98.5c0 1.3-1.6 2.2-2.9 1.5z" fill="url(#u)"/><path d="m346.4 242.9-54.2-31.3c-1-.6-1.6-1.7-1.6-2.8v-97.1c0-1.1 1.2-1.9 2.2-1.3l53.8 31.1c1.6.9 2.6 2.6 2.6 4.5v95.3c0 1.4-1.6 2.3-2.8 1.6z" stroke="#DA0000" stroke-width=".361" stroke-miterlimit="10"/><path d="m334.1 191.9-28.5-16.4v4.5l28.5 16.4v-4.5zM327.9 136.2l-16.1-9.3v2.6l16.1 9.3v-2.6z" fill="#DA0000"/><path d="m327 193.5-14.4-8.3v2l14.4 8.3v-2z" fill="#CF0000"/><g opacity=".44" fill="#FF5353"><path opacity=".44" d="m313.5 194.3-14.2-8.2v3.4l14.2 8.2v-3.4zM313.5 199.9l-14.2-8.2v3.4l14.2 8.2v-3.4zM313.5 205.4l-14.2-8.2v3.5l14.2 8.2v-3.5zM313.5 211l-14.2-8.2v3.5l14.2 8.2V211z"/></g><g opacity=".44" fill="#FF5353"><path opacity=".44" d="m337.4 208.2-14.2-8.2v3.5l14.2 8.2v-3.5zM337.4 213.8l-14.2-8.2v3.5l14.2 8.2v-3.5zM337.4 219.4l-14.2-8.2v3.4l14.2 8.2v-3.4zM337.4 225l-14.2-8.2v3.4l14.2 8.2V225z"/></g><path d="M332.6 167.5c0-10.5-6.3-22.4-14-26.7-7.7-4.3-14 .7-14 11.1 0 7.5 3.2 15.8 8 21.5 0-2.6 1.8-7 4.9-7.7-2-2.1-3.5-5.9-3.4-9.2.1-3.8 2.2-5.4 4.7-3.6 2.5 1.8 4.4 6.2 4.3 10-.1 2.1-.7 3.5-1.7 4 2.8 2.6 5.1 8.3 5.2 12.7 3.7-1.4 6-5.7 6-12.1z" fill="#DA0000"/><path d="m307.6 177.4.5 1.2.8.6-.4.5.3 1.2-.7-.9-.6.2-.1-1-.6-1.1.7.2.1-.9zM313.5 180.7l.5 1.2.7.5-.4.5.4 1.3-.8-.9-.6.2v-1.1l-.7-1.1.7.2.2-.8zM318.7 183.7l.5 1.2.7.6-.4.5.3 1.2-.7-.8-.6.2v-1.1l-.7-1.1.7.2.2-.9zM324.4 187.1l.5 1.2.8.5-.4.5.3 1.2-.7-.8-.6.2-.1-1.1-.6-1.1.7.2.1-.8zM330.1 190.4l.5 1.2.8.5-.4.5.3 1.2-.8-.8-.5.2-.1-1.1-.7-1.1.7.2.2-.8z" fill="#E6F3FA"/><path opacity=".52" d="M291.9 108.2c-1-.6-2.3.1-2.3 1.3v100.3c0 1.2.6 2.3 1.7 2.9l12.9 7.4V115.2l-12.3-7z" fill="url(#v)"/><path opacity=".077" d="M246.5 185.3c-4.6 2-27.9-7.9-52.1-22-24.2-14.1-40.2-27.2-35.6-29.1 4.6-2 27.9 7.9 52.1 22 24.2 14.1 40.1 27.2 35.6 29.1z" fill="#3A0E0E"/><path opacity=".154" d="M243.3 183.5c-4.2 1.8-25.9-7.3-48.4-20.5-22.5-13.1-37.3-25.2-33.1-27.1 4.2-1.8 25.9 7.3 48.4 20.5 22.6 13.2 37.4 25.3 33.1 27.1z" fill="#3A0E0E"/><path opacity=".231" d="M240.2 181.7c-3.9 1.7-23.9-6.8-44.8-18.9-20.8-12.1-34.5-23.3-30.6-25 3.9-1.7 23.9 6.8 44.8 18.9 20.9 12.1 34.6 23.3 30.6 25z" fill="#3A0E0E"/><path opacity=".308" d="M237.66 179.457c1.544-2.743-12.89-13.794-32.239-24.681-19.349-10.888-36.286-17.49-37.829-14.747-1.544 2.744 12.89 13.794 32.239 24.682 19.349 10.888 36.285 17.49 37.829 14.746z" fill="#3A0E0E"/><path opacity=".385" d="M234 178.1c-3.3 1.4-20-5.7-37.4-15.8-17.4-10.1-28.8-19.5-25.5-20.9 3.3-1.4 20 5.7 37.4 15.8 17.4 10.1 28.8 19.5 25.5 20.9z" fill="#3A0E0E"/><path opacity=".462" d="M230.9 176.3c-2.9 1.3-18-5.1-33.7-14.2-15.7-9.1-26-17.6-23-18.8 2.9-1.3 18 5.1 33.7 14.2 15.7 9.1 26 17.5 23 18.8z" fill="#3A0E0E"/><path opacity=".538" d="M227.8 174.5c-2.6 1.1-16-4.5-30-12.7-13.9-8.1-23.1-15.6-20.5-16.8 2.6-1.1 16 4.5 30 12.7 14 8.1 23.1 15.6 20.5 16.8z" fill="#3A0E0E"/><path opacity=".615" d="M224.7 172.6c-2.3 1-14.1-4-26.3-11.1-12.2-7.1-20.3-13.7-18-14.7 2.3-1 14.1 4 26.3 11.1 12.3 7.2 20.3 13.8 18 14.7z" fill="#3A0E0E"/><path opacity=".692" d="M221.6 170.8c-2 .9-12.1-3.4-22.6-9.5-10.5-6.1-17.4-11.8-15.4-12.6 2-.9 12.1 3.4 22.6 9.5 10.5 6.1 17.4 11.8 15.4 12.6z" fill="#3A0E0E"/><path opacity=".769" d="M218.5 169c-1.7.7-10.1-2.9-18.9-8-8.8-5.1-14.6-9.9-12.9-10.6 1.7-.7 10.1 2.9 18.9 8 8.8 5.2 14.5 9.9 12.9 10.6z" fill="#3A0E0E"/><path opacity=".846" d="M215.4 167.2c-1.3.6-8.1-2.3-15.2-6.4-7.1-4.1-11.7-7.9-10.4-8.5 1.3-.6 8.1 2.3 15.2 6.4 7.1 4.1 11.7 7.9 10.4 8.5z" fill="#3A0E0E"/><path opacity=".923" d="M212.3 165.4c-1 .4-6.2-1.7-11.5-4.9-5.4-3.1-8.9-6-7.9-6.4 1-.4 6.2 1.7 11.5 4.9 5.3 3.1 8.9 6 7.9 6.4z" fill="#3A0E0E"/><path d="M209.2 163.6c-.7.3-4.2-1.2-7.8-3.3-3.6-2.1-6-4.1-5.4-4.4.7-.3 4.2 1.2 7.8 3.3 3.6 2.1 6 4.1 5.4 4.4z" fill="#3A0E0E"/><path d="m225.7 173.6-55.6-34c-1-.6-1.7-1.7-1.7-2.9l-1.7-99.9s2.2-1.2 2.8-1.5c.5-.2 1.1-.3 1.6 0l55.2 31.8c1.7 1 2.7 2.7 2.7 4.7v98.5c0 .7-.4 1.2-.9 1.6-1 .7-2.4 1.7-2.4 1.7z" fill="#DA0000"/><path d="m223.6 173.6-56-32.3c-1-.6-1.7-1.7-1.7-2.9V38.1c0-1.2 1.3-1.9 2.3-1.3l55.6 32.1c1.7 1 2.7 2.7 2.7 4.7v98.5c0 1.3-1.6 2.3-2.9 1.5z" fill="url(#w)"/><path d="m222.7 171.4-54.2-31.3c-1-.6-1.6-1.7-1.6-2.8V40.2c0-1.1 1.2-1.9 2.2-1.3L222.9 70c1.6.9 2.6 2.6 2.6 4.5v95.3c0 1.4-1.5 2.3-2.8 1.6z" stroke="#DA0000" stroke-width=".361" stroke-miterlimit="10"/><path d="M210.4 120.4 181.9 104v4.5l28.5 16.4v-4.5zM204.2 64.8l-16.1-9.3V58l16.1 9.3v-2.5z" fill="#DA0000"/><path d="m203.4 122.1-14.4-8.3v1.9l14.4 8.4v-2z" fill="#CF0000"/><g opacity=".44" fill="#FF5353"><path opacity=".44" d="m189.8 122.8-14.2-8.2v3.5l14.2 8.2v-3.5zM189.8 128.4l-14.2-8.2v3.5l14.2 8.1v-3.4zM189.8 134l-14.2-8.2v3.4l14.2 8.2V134zM189.8 139.6l-14.2-8.2v3.4l14.2 8.2v-3.4z"/></g><g opacity=".44" fill="#FF5353"><path opacity=".44" d="m213.7 136.8-14.2-8.2v3.4l14.2 8.2v-3.4zM213.7 142.4l-14.2-8.2v3.4l14.2 8.2v-3.4zM213.7 147.9l-14.2-8.1v3.4l14.2 8.2v-3.5zM213.7 153.5l-14.2-8.2v3.5l14.2 8.2v-3.5z"/></g><path d="M209 96c0-10.5-6.3-22.4-14-26.7-7.7-4.3-14 .7-14 11.1 0 7.5 3.2 15.8 8 21.5 0-2.6 1.8-7 4.9-7.7-2-2.1-3.5-5.9-3.4-9.2.1-3.8 2.2-5.4 4.7-3.6 2.5 1.8 4.4 6.2 4.3 10-.1 2.1-.7 3.5-1.7 4 2.8 2.6 5.1 8.3 5.2 12.7 3.6-1.3 6-5.7 6-12.1z" fill="#DA0000"/><path d="m184 106 .5 1.2.8.5-.4.5.3 1.2-.8-.8-.5.2-.1-1.1-.7-1.1.7.2.2-.8zM189.8 109.2l.5 1.2.8.6-.4.5.3 1.2-.7-.9-.6.2-.1-1-.6-1.1.7.2.1-.9zM195 112.3l.5 1.2.8.5-.4.6.3 1.2-.8-.9-.5.2-.1-1.1-.7-1 .8.2.1-.9zM200.8 115.6l.5 1.2.8.5-.4.6.3 1.2-.8-.9-.6.2v-1l-.7-1.1.7.2.2-.9zM206.5 118.9l.5 1.2.7.6-.4.5.3 1.2-.7-.9-.6.2v-1l-.7-1.1.7.2.2-.9z" fill="#E6F3FA"/><path opacity=".52" d="M202 56.2c0 3.5-.6 101.8-.6 104.6l12.9 7.4V63.3L202 56.2z" fill="url(#x)"/><path opacity=".077" d="M305.863 225.272c2.302-4.091-19.32-20.626-48.296-36.93-28.975-16.305-54.33-26.206-56.632-22.114-2.302 4.091 19.32 20.625 48.296 36.929 28.975 16.305 54.33 26.206 56.632 22.115z" fill="#3A0E0E"/><path opacity=".154" d="M301.5 223.7c-5 2.2-30.6-8.6-57.1-24.1-26.6-15.5-44-29.8-39-31.9 5-2.2 30.6 8.6 57.1 24.1 26.5 15.5 44 29.8 39 31.9z" fill="#3A0E0E"/><path opacity=".231" d="M297.9 221.6c-4.6 2-28.2-8-52.8-22.3-24.5-14.3-40.7-27.5-36.1-29.5 4.6-2 28.2 8 52.8 22.3 24.5 14.3 40.7 27.5 36.1 29.5z" fill="#3A0E0E"/><path opacity=".308" d="M294.2 219.5c-4.2 1.8-25.9-7.3-48.4-20.4-22.5-13.1-37.3-25.2-33.1-27.1 4.2-1.8 25.9 7.3 48.4 20.4 22.5 13.1 37.3 25.3 33.1 27.1z" fill="#3A0E0E"/><path opacity=".385" d="M291.048 216.935c1.652-2.936-13.864-14.801-34.657-26.501-20.793-11.701-38.988-18.805-40.641-15.869-1.652 2.936 13.865 14.801 34.658 26.501 20.793 11.7 38.988 18.805 40.64 15.869z" fill="#3A0E0E"/><path opacity=".462" d="M286.9 215.2c-3.5 1.5-21.3-6-39.7-16.8-18.5-10.8-30.6-20.7-27.1-22.2s21.3 6 39.7 16.8c18.4 10.8 30.5 20.7 27.1 22.2z" fill="#3A0E0E"/><path opacity=".538" d="M283.2 213.1c-3.1 1.3-18.9-5.4-35.4-14.9-16.4-9.6-27.3-18.4-24.2-19.8 3.1-1.3 18.9 5.3 35.4 14.9 16.5 9.6 27.3 18.4 24.2 19.8z" fill="#3A0E0E"/><path opacity=".615" d="M279.5 210.9c-2.7 1.2-16.6-4.7-31-13.1-14.4-8.4-23.9-16.2-21.2-17.3 2.7-1.2 16.6 4.7 31 13.1 14.5 8.4 24 16.2 21.2 17.3z" fill="#3A0E0E"/><path opacity=".692" d="M275.9 208.8c-2.3 1-14.3-4-26.7-11.3-12.4-7.2-20.5-13.9-18.2-14.9 2.3-1 14.3 4 26.7 11.3 12.4 7.2 20.5 13.9 18.2 14.9z" fill="#3A0E0E"/><path opacity=".769" d="M272.2 206.7c-1.9.8-11.9-3.4-22.3-9.4s-17.2-11.6-15.2-12.5c1.9-.8 11.9 3.4 22.3 9.4 10.3 6 17.2 11.6 15.2 12.5z" fill="#3A0E0E"/><path opacity=".846" d="M268.6 204.5c-1.6.7-9.6-2.7-17.9-7.6-8.3-4.9-13.8-9.4-12.3-10 1.6-.7 9.6 2.7 17.9 7.6 8.3 4.9 13.8 9.4 12.3 10z" fill="#3A0E0E"/><path opacity=".923" d="M264.9 202.4c-1.2.5-7.3-2.1-13.6-5.7-6.3-3.7-10.5-7.1-9.3-7.6 1.2-.5 7.3 2.1 13.6 5.7 6.3 3.7 10.5 7.1 9.3 7.6z" fill="#3A0E0E"/><path d="M261.2 200.3c-.8.3-4.9-1.4-9.2-3.9-4.3-2.5-7.1-4.8-6.3-5.2.8-.3 4.9 1.4 9.2 3.9 4.3 2.5 7.1 4.8 6.3 5.2z" fill="#3A0E0E"/><path d="m291.1 219.1-74-45.3c-1.4-.8-2.2-2.3-2.2-3.9l-2.3-133.2s2.9-1.5 3.8-2c.6-.3 1.4-.4 2.1 0l73.6 42.4c2.2 1.3 3.6 3.6 3.6 6.2v131.2c0 .9-.5 1.7-1.2 2.2-1.5 1.1-3.4 2.4-3.4 2.4z" fill="#DA0000"/><path d="m288.7 81.9 5.4-2.8c-.4-.5-.9-1-1.4-1.5l-5.7 2.9 1.7 1.4z" fill="#C40000"/><path d="M287.3 83.7v133.1l3.8 2.3s1.9-1.3 3.3-2.3c.6-.5 1.2-1.2 1.2-2.2V83.4c0-1.2-.3-2.4-.9-3.4l-7.4 3.7z" fill="#B10000"/><path d="m288.3 219.2-74.6-43.1c-1.4-.8-2.2-2.3-2.2-3.9V38.5c0-1.6 1.7-2.6 3.1-1.8l74.1 42.8c2.2 1.3 3.6 3.6 3.6 6.2v131.2c-.1 2-2.2 3.3-4 2.3z" fill="url(#y)"/><path d="m287.1 216.2-72.2-41.7c-1.3-.8-2.2-2.2-2.2-3.8V41.3c0-1.5 1.7-2.5 3-1.7L287.4 81c2.1 1.2 3.5 3.5 3.5 6v127c0 2-2.1 3.2-3.8 2.2z" stroke="#DA0000" stroke-width=".481" stroke-miterlimit="10"/><path d="m270.7 148.3-37.9-21.9v6l37.9 21.8v-5.9zM262.5 74.1 241 61.7v3.4l21.5 12.4v-3.4z" fill="#DA0000"/><path d="m261.4 150.5-19.3-11.1v2.6l19.3 11.1v-2.6z" fill="#CF0000"/><g opacity=".44" fill="#FF5353"><path opacity=".44" d="M242.9 151.9 224 141v4.6l18.9 10.9v-4.6zM243.3 158.9 224.4 148v4.6l18.9 10.9v-4.6zM243.3 166.3l-18.9-10.9v4.6l18.9 10.9v-4.6zM243.3 173.8l-18.9-11v4.6l18.9 10.9v-4.5z"/></g><g opacity=".44" fill="#FF5353"><path opacity=".44" d="m275.2 170.1-19-11v4.6l19 10.9v-4.5zM275.2 177.5l-19-10.9v4.6l19 10.9v-4.6zM275.2 184.9l-19-10.9v4.6l19 10.9v-4.6zM275.2 192.4l-19-11v4.6l19 11v-4.6z"/></g><path d="M268.9 115.7c0-13.9-8.4-29.9-18.7-35.6-10.3-5.7-18.7.9-18.7 14.8 0 10 4.3 21.1 10.6 28.6 0-3.4 2.5-9.3 6.6-10.3-2.7-2.8-4.6-7.9-4.5-12.2.1-5 2.9-7.2 6.3-4.8 3.3 2.4 5.9 8.3 5.8 13.3-.1 2.8-1 4.6-2.3 5.4 3.8 3.4 6.7 11 7 16.9 4.7-1.7 7.9-7.5 7.9-16.1z" fill="#DA0000"/><path d="m235.5 129 .7 1.6 1 .7-.5.7.4 1.6-1-1.1-.8.2v-1.4l-.9-1.4.9.2.2-1.1zM243.3 133.3l.7 1.6 1 .7-.5.8.4 1.6-1-1.2-.8.3-.1-1.5-.9-1.4 1 .3.2-1.2zM250.2 137.4l.7 1.6 1 .7-.5.7.4 1.6-1-1.1-.8.3v-1.5l-.9-1.4.9.3.2-1.2zM257.9 141.8l.7 1.6 1 .7-.5.8.4 1.6-1-1.2-.8.3-.1-1.4-.9-1.5 1 .3.2-1.2zM265.5 146.2l.6 1.6 1.1.8-.6.7.4 1.6-1-1.2-.7.3-.1-1.4-.9-1.5 1 .3.2-1.2z" fill="#E6F3FA"/><defs><linearGradient id="m" x1="144.816" y1="241.406" x2="163.164" y2="227.212" gradientUnits="userSpaceOnUse"><stop stop-color="#FC2323"/><stop offset="1" stop-color="#DA0000"/></linearGradient><linearGradient id="a" x1=".488" y1="268.212" x2="270.844" y2="268.212" gradientUnits="userSpaceOnUse"><stop stop-color="#800"/><stop offset="1" stop-color="#800"/></linearGradient><linearGradient id="c" x1="60.763" y1="291.735" x2="212.727" y2="228.074" gradientUnits="userSpaceOnUse"><stop stop-color="#B10000"/><stop offset="1" stop-color="#800"/></linearGradient><linearGradient id="d" x1="60.524" y1="290.66" x2="212.489" y2="227" gradientUnits="userSpaceOnUse"><stop stop-color="#FEFEFE"/><stop offset="0" stop-color="#FEFEFE"/><stop offset="1" stop-color="#FDECEC"/></linearGradient><linearGradient id="e" x1="173.328" y1="215.369" x2="240.085" y2="215.369" gradientUnits="userSpaceOnUse"><stop stop-color="#B10000"/><stop offset="1" stop-color="#DA0000"/></linearGradient><linearGradient id="f" x1="212.746" y1="200.81" x2="202.642" y2="217.38" gradientUnits="userSpaceOnUse"><stop stop-color="#fff"/><stop offset="1" stop-color="#E8C3C3"/></linearGradient><linearGradient id="g" x1="212.137" y1="251.273" x2="221.287" y2="244.186" gradientUnits="userSpaceOnUse"><stop stop-color="#FC2323"/><stop offset="1" stop-color="#DA0000"/></linearGradient><linearGradient id="h" x1="188.337" y1="265.073" x2="197.487" y2="257.986" gradientUnits="userSpaceOnUse"><stop stop-color="#FC2323"/><stop offset="1" stop-color="#DA0000"/></linearGradient><linearGradient id="i" x1="164.98" y1="278.633" x2="174.177" y2="271.526" gradientUnits="userSpaceOnUse"><stop stop-color="#FC2323"/><stop offset="1" stop-color="#DA0000"/></linearGradient><linearGradient id="j" x1="140.237" y1="293.173" x2="149.387" y2="286.086" gradientUnits="userSpaceOnUse"><stop stop-color="#FC2323"/><stop offset="1" stop-color="#DA0000"/></linearGradient><linearGradient id="k" x1="116.437" y1="309.133" x2="125.627" y2="302.056" gradientUnits="userSpaceOnUse"><stop stop-color="#FC2323"/><stop offset="1" stop-color="#DA0000"/></linearGradient><linearGradient id="l" x1="168.26" y1="227.328" x2="186.443" y2="213.28" gradientUnits="userSpaceOnUse"><stop stop-color="#FC2323"/><stop offset="1" stop-color="#DA0000"/></linearGradient><linearGradient id="b" x1="116.157" y1="276.105" x2="199.639" y2="212.515" gradientUnits="userSpaceOnUse"><stop stop-color="#DA0000"/><stop offset="1" stop-color="#B10000"/></linearGradient><linearGradient id="n" x1="120.702" y1="255.128" x2="138.893" y2="241.051" gradientUnits="userSpaceOnUse"><stop stop-color="#FC2323"/><stop offset="1" stop-color="#DA0000"/></linearGradient><linearGradient id="o" x1="97.059" y1="269.206" x2="115.415" y2="254.982" gradientUnits="userSpaceOnUse"><stop stop-color="#FC2323"/><stop offset="1" stop-color="#DA0000"/></linearGradient><linearGradient id="p" x1="73.002" y1="282.928" x2="91.193" y2="268.851" gradientUnits="userSpaceOnUse"><stop stop-color="#FC2323"/><stop offset="1" stop-color="#DA0000"/></linearGradient><linearGradient id="q" x1="221.144" y1="304.382" x2="233.101" y2="304.382" gradientUnits="userSpaceOnUse"><stop stop-color="#8C8C8C"/><stop offset="1" stop-color="#8C8C8C"/></linearGradient><linearGradient id="r" x1="170.995" y1="318.988" x2="227.754" y2="318.988" gradientUnits="userSpaceOnUse"><stop stop-color="#DA0000"/><stop offset="1" stop-color="#FC2323"/></linearGradient><linearGradient id="s" x1="229.469" y1="300.866" x2="233.101" y2="300.866" gradientUnits="userSpaceOnUse"><stop stop-color="#FC2323"/><stop offset="1" stop-color="#FF5353"/></linearGradient><linearGradient id="t" x1="200.719" y1="324.973" x2="198.388" y2="320.892" gradientUnits="userSpaceOnUse"><stop stop-color="#B10000"/><stop offset="1" stop-color="#720000" stop-opacity="0"/></linearGradient><linearGradient id="u" x1="301.198" y1="207.457" x2="344.76" y2="202.807" gradientUnits="userSpaceOnUse"><stop stop-color="#FEFEFE"/><stop offset="0" stop-color="#FEFEFE"/><stop offset="1" stop-color="#FDECEC"/></linearGradient><linearGradient id="v" x1="289.58" y1="164.068" x2="304.12" y2="164.068" gradientUnits="userSpaceOnUse"><stop stop-color="#FC2323" stop-opacity=".78"/><stop offset="1" stop-color="#BE0000" stop-opacity="0"/></linearGradient><linearGradient id="w" x1="177.498" y1="135.987" x2="221.061" y2="131.339" gradientUnits="userSpaceOnUse"><stop stop-color="#FEFEFE"/><stop offset="0" stop-color="#FEFEFE"/><stop offset="1" stop-color="#FDECEC"/></linearGradient><linearGradient id="x" x1="201.383" y1="112.227" x2="214.229" y2="112.227" gradientUnits="userSpaceOnUse"><stop offset=".339" stop-color="#BE0000" stop-opacity="0"/><stop offset="1" stop-color="#FC2323" stop-opacity=".78"/></linearGradient><linearGradient id="y" x1="226.964" y1="168.998" x2="285.048" y2="162.802" gradientUnits="userSpaceOnUse"><stop stop-color="#FEFEFE"/><stop offset="0" stop-color="#FEFEFE"/><stop offset="1" stop-color="#FDECEC"/></linearGradient></defs></svg>